<svg xmlns="http://www.w3.org/2000/svg" width="43" height="42" viewBox="0 0 43 42">
    <defs>
        <linearGradient id="a" x1="24.233%" x2="79.889%" y1="115.749%" y2="8.023%">
            <stop offset="0%" stop-color="#FF7854"/>
            <stop offset="100%" stop-color="#FD267D"/>
        </linearGradient>
    </defs>
    <path fill="url(#a)" fill-rule="evenodd" d="M77.912 20.637h-2.89v10.307h-4.284V20.637h-2.037v-3.641h2.037v-2.357c0-1.688.8-4.324 4.322-4.324l3.173.013v3.535H75.93c-.375 0-.909.187-.909.993v2.14h3.266l-.375 3.641zM73.492 0C62.1 0 52.862 9.237 52.862 20.63c0 11.395 9.238 20.629 20.63 20.629 11.394 0 20.63-9.234 20.63-20.63C94.122 9.237 84.886 0 73.492 0z" transform="translate(-52)"/>
</svg>
