<svg xmlns="http://www.w3.org/2000/svg" width="42" height="42" viewBox="0 0 42 42">
    <defs>
        <linearGradient id="a" x1="24.233%" x2="79.889%" y1="115.749%" y2="8.023%">
            <stop offset="0%" stop-color="#FF7854"/>
            <stop offset="100%" stop-color="#FD267D"/>
        </linearGradient>
    </defs>
    <g fill="none" fill-rule="evenodd">
        <path fill="#FD5068" d="M21.355 0c11.394 0 20.63 9.237 20.63 20.63 0 11.395-9.236 20.629-20.63 20.629-11.393 0-20.63-9.234-20.63-20.63C.726 9.237 9.963 0 21.356 0zm9.025 25.546v-9.833a4.114 4.114 0 0 0-4.109-4.109h-9.833a4.114 4.114 0 0 0-4.108 4.109v9.833a4.113 4.113 0 0 0 4.108 4.109h9.833a4.114 4.114 0 0 0 4.11-4.11z"/>
        <path stroke="url(#a)" stroke-width="1.4" d="M20.692 16.172a4.526 4.526 0 0 0-4.52 4.52 4.526 4.526 0 0 0 4.52 4.52 4.526 4.526 0 0 0 4.52-4.52 4.526 4.526 0 0 0-4.52-4.52z" transform="translate(.726)"/>
        <path fill="url(#a)" d="M25.863 13.783a1.32 1.32 0 0 0-1.315 1.316c0 .346.14.685.386.93.244.244.584.386.93.386.346 0 .685-.142.93-.386.245-.245.385-.584.385-.93 0-.347-.14-.687-.385-.93a1.321 1.321 0 0 0-.93-.386z" transform="translate(.726)"/>
    </g>
</svg>
