<svg xmlns="http://www.w3.org/2000/svg" width="139" height="33" viewBox="0 0 139 33">
    <defs>
        <linearGradient id="a" x1="24.233%" x2="79.889%" y1="115.749%" y2="8.023%">
            <stop offset="0%" stop-color="#FF7854"/>
            <stop offset="100%" stop-color="#FD267D"/>
        </linearGradient>
    </defs>
    <g fill="none" fill-rule="evenodd">
        <path fill="url(#a)" d="M8.393 13.213c6.261-2.159 7.327-7.78 6.528-12.95 0-.186.16-.32.32-.24 5.994 2.905 12.735 9.273 12.735 18.865 0 7.354-5.702 13.855-13.988 13.855C5.142 32.743 0 26.428 0 18.888 0 14.49 3.117 9.962 6.475 8.044c.16-.107.373 0 .373.186.08.986.346 3.49 1.438 4.956.027.027.08.027.107.027z"/>
        <path fill="#424242" d="M45.606 26.939l.47-.541 1.407 4.493-.183.172c-1.057.99-2.646 1.493-4.723 1.493h-.075c-1.868 0-3.329-.508-4.339-1.51-1.031-1.025-1.554-2.524-1.554-4.458V14.41h-3.597V9.456h3.597V3.514h5.542v5.942h4.396v4.955h-4.423v11.004c0 .507.121 2.159 1.679 2.159.784 0 1.532-.323 1.803-.635zm2.94 5.111V9.482h5.542V32.05h-5.542zM51.29.29a3.334 3.334 0 0 1 3.33 3.33 3.334 3.334 0 0 1-3.33 3.331 3.334 3.334 0 0 1-3.33-3.33c0-1.806 1.524-3.33 3.33-3.33zm17.692 8.66c4.793 0 7.433 2.62 7.433 7.38v15.72h-5.542V17.636h.018c-.113-2.558-1.348-3.704-3.96-3.704-2.333 0-4.235 1.412-5.196 2.664V32.05h-5.542V9.482h5.542v2.383c1.604-1.517 4.161-2.915 7.247-2.915zm25.871 2.882V1.222h5.542v30.854h-5.542v-2.34c-1.764 1.82-4.11 2.847-6.581 2.847-6.04 0-10.098-4.744-10.098-11.804 0-7.075 4.058-11.83 10.098-11.83 2.484 0 4.83 1.039 6.581 2.883zm0 4.756c-1.096-1.545-3.27-2.656-5.222-2.656-3.426 0-5.729 2.752-5.729 6.847 0 4.08 2.303 6.822 5.729 6.822 1.997 0 4.17-1.088 5.222-2.6v-8.413zm18.491-7.638c6.542 0 11.11 5.04 11.11 12.256v1.519h-16.75c.553 3.172 3.046 5.195 6.466 5.195 2.164 0 4.535-.917 5.899-2.28l.338-.34 2.625 3.791-.245.236c-2.18 2.1-5.41 3.256-9.097 3.256-6.95 0-11.803-4.865-11.803-11.83.029-6.73 4.954-11.803 11.457-11.803zm-5.678 9.618h11.382c-.313-3.401-3.127-4.956-5.704-4.956-3.891 0-5.363 2.936-5.678 4.956zm30.19-9.592h.4v5.577l-.478-.096c-.41-.082-.9-.125-1.414-.125-1.787 0-4.268 1.25-5.195 2.597v15.094h-5.542V9.483h5.569v2.525c1.834-1.915 4.258-3.032 6.66-3.032z"/>
    </g>
</svg>
