<svg xmlns="http://www.w3.org/2000/svg" width="28" height="21" viewBox="0 0 28 21">
    <path fill="#424242" fill-rule="nonzero" d="M25.667 3.365H2.333C1.26 3.365.39 2.612.39 1.683.389.753 1.26 0 2.333 0h23.334c1.075 0 1.944.754 1.944 1.683s-.87 1.682-1.944 1.682zm0 8.414H2.333c-1.073 0-1.944-.754-1.944-1.683s.871-1.683 1.944-1.683h23.334c1.075 0 1.944.754 1.944 1.683s-.87 1.683-1.944 1.683zm0 8.413H2.333C1.26 20.192.39 19.44.39 18.51c0-.93.871-1.683 1.944-1.683h23.334c1.075 0 1.944.752 1.944 1.683 0 .93-.87 1.682-1.944 1.682z"/>
</svg>
