<?xml version="1.0" encoding="UTF-8"?>
<svg width="280px" height="314px" viewBox="0 0 280 314" version="1.1" xmlns="http://www.w3.org/2000/svg" xmlns:xlink="http://www.w3.org/1999/xlink">
    <!-- Generator: Sketch 49.3 (51167) - http://www.bohemiancoding.com/sketch -->
    <title>Rewind</title>
    <desc>Created with Sketch.</desc>
    <defs>
        <linearGradient x1="100%" y1="8.50769444%" x2="7.86329409%" y2="100%" id="linearGradient-1">
            <stop stop-color="#FFAD05" offset="0%"></stop>
            <stop stop-color="#FFD300" offset="100%"></stop>
        </linearGradient>
    </defs>
    <g id="Rewind" stroke="none" stroke-width="1" fill="none" fill-rule="evenodd">
        <g id="Rewind-Feature-Page-" transform="translate(-959.000000, -199.000000)" fill="url(#linearGradient-1)">
            <g id="Rewind" transform="translate(959.000000, 199.000000)">
                <g id="Group-2-Copy-2" transform="translate(0.046809, 0.136170)">
                    <path d="M141.007865,40.8308296 C217.569876,41.449543 279.662722,102.255169 279.662722,176.915832 C279.662722,251.953891 216.931194,313 139.828484,313 C62.7315282,313 0,251.953891 0,176.915832 C0,169.526177 13.5142358,170.64106 27.2568553,170.516179 C40.9994748,170.391298 55.9313938,169.272121 55.9313938,176.915832 C55.9313938,221.943147 93.5622564,258.566333 139.828484,258.566333 C186.094712,258.566333 223.731328,221.943147 223.731328,176.915832 C223.731328,132.271732 186.732614,95.8838139 141.007865,95.2676746 L141.007865,104.173372 L141.007865,121.043217 C141.007865,139.598368 128.028928,146.356384 112.1677,136.065386 L104.855542,131.323017 C88.994315,121.032019 63.0364412,104.190169 47.1694608,93.899171 L39.8630557,89.1512025 C23.9960752,78.8602047 23.9960752,62.0183542 39.8630557,51.7273565 L47.1694608,46.984987 C63.0364412,36.6939893 88.994315,19.8521388 104.855542,9.56114102 L112.1677,4.81317253 C128.028928,-5.47782522 141.007865,1.28579028 141.007865,19.8353417 L141.007865,36.7051873 L141.007865,40.8308296 Z" id="Combined-Shape"></path>
                </g>
            </g>
        </g>
    </g>
</svg>