<?xml version="1.0" encoding="UTF-8"?>
<svg width="160px" height="160px" viewBox="0 0 160 160" version="1.1" xmlns="http://www.w3.org/2000/svg" xmlns:xlink="http://www.w3.org/1999/xlink">
    <!-- Generator: Sketch 49.3 (51167) - http://www.bohemiancoding.com/sketch -->
    <title>Rewind</title>
    <desc>Created with Sketch.</desc>
    <defs>
        <linearGradient x1="100%" y1="8.50769444%" x2="7.86329409%" y2="100%" id="linearGradient-1">
            <stop stop-color="#FFAD05" offset="0%"></stop>
            <stop stop-color="#FFD300" offset="100%"></stop>
        </linearGradient>
    </defs>
    <g id="Master" stroke="none" stroke-width="1" fill="none" fill-rule="evenodd">
        <g id="Subscription-Page---Annotated" transform="translate(-1048.000000, -1360.000000)">
            <g id="Rewind" transform="translate(1048.000000, 1360.000000)">
                <circle id="Oval-Copy-4" fill="url(#linearGradient-1)" cx="80" cy="80" r="80"></circle>
                <g id="Group-2-Copy-2" transform="translate(43.574468, 39.489362)" fill="#FFFFFF">
                    <path d="M36.8071648,10.6580372 C56.7920824,10.8195395 73.0001259,26.6915811 73.0001259,46.1801914 C73.0001259,65.767313 56.6253677,81.7021277 36.4993121,81.7021277 C16.3747582,81.7021277 7.10542736e-15,65.767313 7.10542736e-15,46.1801914 C7.10542736e-15,44.2512759 3.52760964,44.542293 7.11483409,44.5096953 C10.7020585,44.4770976 14.5997248,44.1849598 14.5997248,46.1801914 C14.5997248,57.9336336 24.4224774,67.4933532 36.4993121,67.4933532 C48.5761468,67.4933532 58.4004011,57.9336336 58.4004011,46.1801914 C58.4004011,34.5267793 48.7426577,25.0284716 36.8071648,24.8676412 L36.8071648,27.1922879 L36.8071648,31.5958095 C36.8071648,36.4392449 33.4192837,38.2032843 29.2790408,35.5170338 L27.3703543,34.279137 C23.2301114,31.5928865 16.4543494,27.1966724 12.3126048,24.5104219 L10.40542,23.2710637 C6.26367541,20.5848131 6.26367541,16.188599 10.40542,13.5023485 L12.3126048,12.2644518 C16.4543494,9.57820126 23.2301114,5.18198714 27.3703543,2.49573663 L29.2790408,1.25637839 C33.4192837,-1.42987212 36.8071648,0.335628758 36.8071648,5.17760262 L36.8071648,9.58112428 L36.8071648,10.6580372 Z" id="Fill-1"></path>
                </g>
            </g>
        </g>
    </g>
</svg>