<?xml version="1.0" encoding="UTF-8"?>
<svg width="160px" height="160px" viewBox="0 0 160 160" version="1.1" xmlns="http://www.w3.org/2000/svg" xmlns:xlink="http://www.w3.org/1999/xlink">
    <!-- Generator: Sketch 49.3 (51167) - http://www.bohemiancoding.com/sketch -->
    <title>Superlike</title>
    <desc>Created with Sketch.</desc>
    <defs>
        <linearGradient x1="17.5273531%" y1="100%" x2="80.194809%" y2="15.5031374%" id="linearGradient-1">
            <stop stop-color="#08D0FF" offset="0%"></stop>
            <stop stop-color="#3CA4FF" offset="100%"></stop>
        </linearGradient>
    </defs>
    <g id="Master" stroke="none" stroke-width="1" fill="none" fill-rule="evenodd">
        <g id="Subscription-Page---Annotated" transform="translate(-641.000000, -1357.000000)">
            <g id="Superlike" transform="translate(641.000000, 1357.000000)">
                <circle id="Oval-Copy-2" fill="url(#linearGradient-1)" cx="80" cy="80" r="80"></circle>
                <path d="M119.075663,79.2659616 C116.305127,81.7955181 116.305127,81.7955181 111.823178,85.8877782 C105.900799,91.2952668 105.900799,91.2952668 103.927275,93.0972272 C104.707641,92.3844978 104.974796,91.5633371 104.760228,90.5322107 C105.298985,93.1522545 105.298985,93.1522545 106.915401,101.012401 C107.885592,105.729938 108.584383,109.127246 108.895371,110.638164 C110.595236,118.896862 103.772206,123.861244 96.4393171,119.677338 C95.1000101,118.914175 92.0887705,117.198836 87.9093088,114.818202 C80.9422185,110.849807 80.9422185,110.849807 78.619439,109.526825 C79.5466098,110.055105 80.4185333,110.055105 81.3425329,109.527289 C80.7619994,109.857924 80.7619994,109.857924 78.4398199,111.18051 C75.5370951,112.83376 75.5370951,112.83376 72.0538425,114.81771 C67.8732491,117.19887 64.8619019,118.914201 63.5243606,119.676357 C56.1891474,123.85984 49.3665816,118.895797 51.0661249,110.640409 C51.376765,109.127763 52.0756723,105.729414 53.0461505,101.012251 C53.8554532,97.0786979 53.8554532,97.0786979 54.5290847,93.8049756 C55.06799,91.1861108 55.06799,91.1861108 55.2027553,90.5312528 C54.989497,91.5673561 55.2543961,92.3832607 56.0372655,93.0980713 C55.5437162,92.6475195 55.5437162,92.6475195 53.5695793,90.845325 C51.1019089,88.5925508 51.1019089,88.5925508 48.1406815,85.8890913 C44.5854292,82.6432646 42.0251508,80.3055492 40.8883362,79.2670688 C34.6623188,73.5864326 37.2618094,65.5732049 45.6451058,64.6368909 C47.1768042,64.4658185 49.3711522,64.2209088 55.3995616,63.5481733 C63.36772,62.6590463 63.36772,62.6590463 66.0253037,62.3625282 C64.9626648,62.4806136 64.2638424,62.9896073 63.8260205,63.9565831 C64.9281186,61.5196695 64.9281186,61.5196695 68.2345484,54.2089411 C70.2187787,49.8217742 71.6481471,46.6616625 72.2836371,45.2571434 C75.7595708,37.5667817 84.2014718,37.5667817 87.6791118,45.2570598 C88.3145214,46.6628107 89.7435171,49.8230708 91.7269959,54.209185 C93.3803441,57.8652276 93.3803441,57.8652276 94.7577286,60.910934 C95.8596359,63.3474713 95.8596359,63.3474713 96.1372752,63.9613824 C95.6998788,62.9915834 94.9977708,62.4804057 93.9381856,62.3627911 C96.5934959,62.6591011 96.5934959,62.6591011 104.559423,63.5480673 C110.588475,64.2209105 110.588475,64.2209105 114.314958,64.6368647 C122.69742,65.5728905 125.295811,73.582729 119.075663,79.2659616 Z" id="Shape-Copy-2" fill="#FFFFFF" fill-rule="nonzero"></path>
            </g>
        </g>
    </g>
</svg>