<?xml version="1.0" encoding="UTF-8"?>
<svg width="338px" height="324px" viewBox="0 0 338 324" version="1.1" xmlns="http://www.w3.org/2000/svg" xmlns:xlink="http://www.w3.org/1999/xlink">
    <!-- Generator: Sketch 49.3 (51167) - http://www.bohemiancoding.com/sketch -->
    <title>Group 3 Copy</title>
    <desc>Created with Sketch.</desc>
    <defs>
        <linearGradient x1="17.5273531%" y1="100%" x2="80.194809%" y2="15.5031374%" id="linearGradient-1">
            <stop stop-color="#08D0FF" offset="0%"></stop>
            <stop stop-color="#3CA4FF" offset="100%"></stop>
        </linearGradient>
    </defs>
    <g id="Super-Like" stroke="none" stroke-width="1" fill="none" fill-rule="evenodd">
        <g id="Super-Like-Feature-Page-" transform="translate(-902.000000, -192.000000)" fill="url(#linearGradient-1)" fill-rule="nonzero">
            <g id="Group-3-Copy" transform="translate(902.000000, 192.000000)">
                <path d="M324.341629,157.739079 C313.333263,167.770352 313.333263,167.770352 295.524822,183.99872 C271.993019,205.442792 271.993019,205.442792 264.151479,212.588691 C267.25216,209.762274 268.313669,206.505859 267.461111,202.416798 C269.60179,212.806909 269.60179,212.806909 276.024408,243.977301 C279.879336,262.685286 282.655892,276.157737 283.891562,282.149468 C290.645755,314.900369 263.535332,334.587244 234.399053,317.995442 C229.077491,314.969024 217.112723,308.166635 200.506176,298.725933 C172.823349,282.988765 172.823349,282.988765 163.594088,277.742316 C167.27808,279.837277 170.742554,279.837277 174.413947,277.744156 C172.107272,279.055328 172.107272,279.055328 162.880394,284.300209 C151.346795,290.856379 151.346795,290.856379 137.506544,298.723979 C120.895501,308.166767 108.930305,314.969127 103.615759,317.991553 C74.4702439,334.581678 47.3616667,314.896143 54.1145805,282.15837 C55.3488688,276.159784 58.1258857,262.683207 61.9819547,243.976708 C65.1976136,228.377712 65.1976136,228.377712 67.8742005,215.395356 C70.0154707,205.009921 70.0154707,205.009921 70.550943,202.412999 C69.703589,206.521796 70.756131,209.757368 73.8667607,212.592039 C71.9057067,210.805319 71.9057067,210.805319 64.0617309,203.658492 C54.2567637,194.724834 54.2567637,194.724834 42.4907123,184.003928 C28.36438,171.132196 18.191447,161.861694 13.6744623,157.74347 C-11.0638073,135.216197 -0.735069948,103.43874 32.5748669,99.7256706 C38.6608713,99.0472616 47.3798273,98.0760413 71.3329272,95.4082246 C102.993367,91.8822805 102.993367,91.8822805 113.55293,90.7064008 C109.330673,91.1746832 106.553993,93.1931615 104.814365,97.0278248 C109.193408,87.3639392 109.193408,87.3639392 122.331077,58.3723319 C130.215157,40.9744735 135.894566,28.4426554 138.419603,22.8728594 C152.230774,-7.62423118 185.773568,-7.62423118 199.591518,22.8725277 C202.116235,28.4472088 207.794164,40.9796151 215.675259,58.3732991 C222.244622,72.8717933 222.244622,72.8717933 227.71748,84.9499226 C232.095766,94.6123161 232.095766,94.6123161 233.198929,97.0468571 C231.460991,93.2009979 228.671257,91.173859 224.461133,90.7074435 C235.011663,91.8824977 235.011663,91.8824977 266.663237,95.4078045 C290.618891,98.0760481 290.618891,98.0760481 305.425586,99.7255665 C338.732205,103.437494 349.056574,135.20151 324.341629,157.739079 Z" id="Shape-Copy-2"></path>
            </g>
        </g>
    </g>
</svg>
