<?xml version="1.0" encoding="UTF-8"?>
<svg width="106px" height="70px" viewBox="0 0 106 70" version="1.1" xmlns="http://www.w3.org/2000/svg" xmlns:xlink="http://www.w3.org/1999/xlink">
    <!-- Generator: Sketch 49.3 (51167) - http://www.bohemiancoding.com/sketch -->
    <title>Group 5</title>
    <desc>Created with Sketch.</desc>
    <defs>
        <linearGradient x1="100%" y1="0%" x2="0%" y2="100%" id="linearGradient-1">
            <stop stop-color="#FF7854" offset="0%"></stop>
            <stop stop-color="#FD267D" offset="100%"></stop>
        </linearGradient>
        <linearGradient x1="100%" y1="-13.2366845%" x2="0%" y2="113.874362%" id="linearGradient-2">
            <stop stop-color="#FF7854" offset="0%"></stop>
            <stop stop-color="#FD267D" offset="100%"></stop>
        </linearGradient>
    </defs>
    <g id="Master" stroke="none" stroke-width="1" fill="none" fill-rule="evenodd">
        <g id="Mobile-Page---Annotated" transform="translate(-134.000000, -250.000000)">
            <g id="Group-5" transform="translate(134.000000, 250.000000)">
                <path d="M18,28.2468112 C31.4285714,23.6328845 33.7142857,11.6138902 32,0.563250894 C32,0.164516485 32.3428571,-0.120293806 32.6857143,0.0505923686 C45.5428571,6.25945673 60,19.8733887 60,40.3797297 C60,56.1012578 47.7714286,70 30,70 C11.0285714,70 0,56.4999922 0,40.3797297 C0,30.98099 6.68571429,21.2974401 13.8857143,17.1961719 C14.2285714,16.9683237 14.6857143,17.1961719 14.6857143,17.5949063 C14.8571429,19.7025025 15.4285714,25.056936 17.7714286,28.1898492 C17.8285714,28.2468112 17.9428571,28.2468112 18,28.2468112 Z" id="Fill-1-Copy" fill="url(#linearGradient-1)"></path>
                <path d="M104.204463,43.1257862 C105.196111,43.1257862 106,42.3278474 106,41.3344498 L106,37.9611477 C106,36.9718199 105.202273,36.1698113 104.204463,36.1698113 L90.3475336,36.1698113 L90.3475336,20.8050188 C90.3475336,19.8081344 89.5333847,19 88.5446331,19 L84.5428108,19 C83.5470964,19 82.7399103,19.8051064 82.7399103,20.8050188 L82.7399103,36.1698113 L68.8055678,36.1698113 C67.8083803,36.1698113 67,36.9677501 67,37.9611477 L67,41.3344498 C67,42.3237776 67.8021838,43.1257862 68.8055678,43.1257862 L82.7399103,43.1257862 L82.7399103,59.2043138 C82.7399103,60.1960439 83.5540593,61 84.5428108,61 L88.5446331,61 C89.5403476,61 90.3475336,60.1855357 90.3475336,59.2043138 L90.3475336,43.1257862 L104.204463,43.1257862 Z" id="+-copy-2" fill="url(#linearGradient-2)"></path>
            </g>
        </g>
    </g>
</svg>